<?xml version="1.0" encoding="iso-8859-1"?>
<!-- Generator: Adobe Illustrator 16.0.0, SVG Export Plug-In . SVG Version: 6.00 Build 0)  -->
<!DOCTYPE svg PUBLIC "-//W3C//DTD SVG 1.1//EN" "http://www.w3.org/Graphics/SVG/1.1/DTD/svg11.dtd">
<svg xmlns="http://www.w3.org/2000/svg" xmlns:xlink="http://www.w3.org/1999/xlink" version="1.1" id="Capa_1" x="0px" y="0px" width="512px" height="512px" viewBox="0 0 195.398 195.398" style="enable-background:new 0 0 195.398 195.398;" xml:space="preserve">
<g>
	<g>
		<path d="M130.543,161.119c1.48-1.114,2.75-2.218,3.695-3.198c15.061-15.619,19.771-33.503,20.404-54.794    c1.102-37.017-26.112-69.974-64.281-64.541c-36.472,5.191-60.777,42.925-56.556,77.755c2.443,20.158,15.811,35.603,32.93,44.161    c-0.075,0.085-0.153,0.17-0.225,0.256c-0.009,0-0.018-0.007-0.027-0.007c-1.85-0.074-3.421,2.607-4.321,3.904    c-1.819,2.622-3.251,5.612-4.148,8.674c-1.057,3.606-0.317,10.097,4.463,10.499c3.945,0.331,6.869-5.97,8.291-8.704    c1.139-2.191,2.124-4.463,3.082-6.738c0.53-1.258,1.525-2.824,0.998-4.214c-0.035-0.091-0.092-0.171-0.144-0.255    c10.648,3.779,22.209,5.094,33.279,3.35c0.087-0.015,0.108-0.093,0.183-0.12c2.99,1.75,6.963,1.43,10.972,0.109    c0.007,0.022-0.011,0.041-0.001,0.063c2.176,5.227,12.749,21.391,19.644,13.357c2.806-3.268-0.028-8.632-1.738-11.697    C136.091,167.275,133.198,161.654,130.543,161.119z M109.223,163.69c-1.108-0.667-2.062-0.044-2.401,0.855    c-29.139,0.583-54.661-10.08-66.511-38.438C28.347,97.478,45.298,67.24,68.84,51.318c30.893-20.896,65.052-5.929,78.026,27.175    c6.144,15.675,4.259,34.042,0.786,50C145.501,138.365,124.656,172.979,109.223,163.69z" fill="#20b2aa"/>
		<path d="M66.186,34.819c-3.978-14.71-24.683-16.181-34.254-5.924c-6.804,7.291-7.326,28.15,5.797,28.128    c-0.017,0.098-0.062,0.189-0.076,0.287c-0.219,1.579,1.744,2.643,2.684,1.132c3.863-6.207,9.384-10.371,15.321-14.519    c2.025-1.415,7.161-3.909,9.209-6.811C65.771,36.836,66.505,35.998,66.186,34.819z M49.783,43.416    c-3.572,2.622-8.631,6.152-10.943,10.515c-9.777-2.591-9.826-15.198-4.181-22.31c6.724-8.471,23.197-7.166,27.287,2.83    C57.78,37.175,53.755,40.5,49.783,43.416z" fill="#20b2aa"/>
		<path d="M152.918,20.878c-5.718-1.132-29.342,3.473-22.523,12.222c-0.019,0.399,0.076,0.807,0.449,1.06    c8.515,5.762,16.792,11.528,24.472,18.407c0.492,0.44,1.042,0.555,1.556,0.477c0.436,0.145,0.946,0.11,1.479-0.208    C171.934,44.726,168.973,24.058,152.918,20.878z M157.134,49.052c-7.323-6.446-15.396-12.983-24.511-16.614    c-0.878-7.005,13.539-8.142,18.108-7.959c5.567,0.223,10.468,5.014,12.229,10.027C165.024,40.382,161.687,45.663,157.134,49.052z" fill="#20b2aa"/>
		<path d="M121.624,77.098c-2.43,0.474-4.497,3.688-6.061,5.394c-3.379,3.685-6.652,7.474-9.804,11.354    c-0.739,0.91-4.493,4.969-6.705,8.613c-0.217-0.073-0.407-0.193-0.633-0.246c-0.086-0.339-0.277-0.652-0.641-0.747    c-3.025-0.787-5.593,0.262-7.283,2.114c-4.407-3.373-9.148-6.47-13.285-10.157c-6.332-5.644-12.45-11.788-19.525-16.513    c-1.11-0.741-2.288,0.893-1.393,1.805c6.424,6.542,13.18,12.855,19.994,18.989c3.47,3.125,7.726,7.399,12.271,10.167    c-0.191,1.716,0.121,3.537,1.23,5.221c4.018,6.096,15.159,1.979,13.903-5.329c-0.216-1.257-0.794-2.346-1.568-3.256    c0.52-0.73,0.984-1.398,1.18-1.665c2.545-3.482,5.402-6.744,8.202-10.021c2.417-2.83,4.897-5.607,7.424-8.34    c1.42-1.537,3.644-3.115,4.482-5.058C123.968,78.134,123.075,76.815,121.624,77.098z" fill="#20b2aa"/>
		<path d="M92.821,51.928c-0.046,1.946-0.388,3.896-0.631,5.823c-0.184,1.46-0.676,3.443,0.418,4.683    c-0.011,0.106-0.007,0.21-0.019,0.317c-0.165,1.503,2.218,1.753,2.586,0.35c0.951-3.626,1.092-7.445,1.258-11.173    C96.535,49.604,92.875,49.599,92.821,51.928z" fill="#20b2aa"/>
		<path d="M52.778,111.494c-3.856,0.149-7.691-0.376-11.544-0.198c-1.585,0.073-1.572,2.28-0.054,2.456    c-0.099,0.507,0.012,1.03,0.488,1.409c0.527,0.419,1.084,0.518,1.66,0.473c-0.479,0.154,0.956-0.003,1.242-0.029    c1.026-0.1,2.055-0.179,3.083-0.256c1.704-0.132,3.416-0.284,5.126-0.325C55.051,114.967,55.05,111.406,52.778,111.494z" fill="#20b2aa"/>
		<path d="M98.421,148.613c-0.132-1.71-2.935-2.365-3.203-0.435c-0.02,0.145-0.012,0.294-0.03,0.438    c-0.01-0.001-0.019-0.002-0.028-0.004c-0.032,0.41-0.035,0.822-0.056,1.231c-0.057,0.761-0.118,1.516-0.103,2.279    c-0.025,0.773-0.056,1.545-0.104,2.317c-0.048,0.77-0.189,1.539-0.321,2.307c-0.503,0.878-0.365,2.043-0.357,3.086    c-0.009,1.199,0.92,1.793,1.85,1.787c0.93,0.006,1.859-0.588,1.85-1.787c-0.002-0.303,0.057-0.617,0.082-0.925    c0.04-0.085,0.035-0.17,0.023-0.267c0.021-0.216,0.029-0.429,0.058-0.645c0.03-0.176,0.064-0.372,0.084-0.561    c0.007-0.064-0.008-0.137-0.004-0.202c0.099-0.659,0.205-1.319,0.252-1.962C98.575,153.068,98.592,150.816,98.421,148.613z" fill="#20b2aa"/>
		<path d="M145.555,110.711c-1.016-0.945-2.7-0.995-4.347-1.121c-2.292-0.175-4.599-0.377-6.897-0.393    c-0.99-0.007-1.558,0.614-1.746,1.35c-0.14-0.017-0.279-0.022-0.419-0.042c-1.479-0.193-1.76,2.237-0.349,2.571    c3.722,0.881,7.391,0.894,11.172,0.44c0.104-0.013,0.182-0.059,0.276-0.083c0.581-0.017,1.173-0.028,1.622-0.121    c-0.013-0.032-0.026-0.063-0.04-0.096C145.881,112.911,146.594,111.68,145.555,110.711z" fill="#20b2aa"/>
		<path d="M85.3,28.386c-1.425-3.108-3.478-5.838-5.374-8.669c-1.678-2.506-4.034-5.718-3.662-8.916    c0.115-0.992-1.288-1.452-1.91-0.791c-2.262,2.402-0.231,5.784,1.152,8.128c2.354,3.99,5.481,7.459,8.244,11.154    C84.441,30.218,85.788,29.449,85.3,28.386z" fill="#20b2aa"/>
		<path d="M93.291,18.467c-0.067-2.376,0.185-4.955-0.384-7.266c-0.281-1.142-2.072-1.175-2.333,0    c-0.455,2.047-0.014,4.164,0.217,6.228c0.319,2.84,0.633,5.676,0.88,8.523c0.088,1.013,1.514,1.025,1.583,0    C93.421,23.456,93.361,20.967,93.291,18.467z" fill="#20b2aa"/>
		<path d="M107.007,7.598c-2.271,1.225-2.761,4.751-3.426,7.03c-1.062,3.643-2.022,7.519-2.19,11.325    c-0.059,1.323,2.001,1.597,2.302,0.312c0.782-3.34,1.58-6.636,2.613-9.912c0.781-2.477,2.474-5.127,2.51-7.716    C108.829,7.698,107.792,7.174,107.007,7.598z" fill="#20b2aa"/>
		<path d="M26.985,68.341c-2.138-1.935-4.673-3.441-6.906-5.27c-0.951-0.778-1.848-1.615-2.688-2.51    c-0.698-0.743-1.113-1.725-1.869-2.402c-0.74-0.662-2.084-0.463-2.328,0.614c-0.539,2.38,2.018,4.38,3.617,5.73    c2.584,2.18,5.562,4.4,8.625,5.846C26.677,70.935,28.128,69.375,26.985,68.341z" fill="#20b2aa"/>
		<path d="M20.9,79.777c-3.095-1.368-6.593-2.193-9.835-3.168c-0.936-0.281-2.355-0.508-3.142,0.289    c-0.74,0.749-0.363,1.723,0.511,2.105c-0.193-0.043-0.209-0.087,0.162,0.13c0.398,0.233,0.775,0.412,1.229,0.511    c1.07,0.235,2.131,0.516,3.193,0.787c2.317,0.591,4.88,1.539,7.292,1.53C21.397,81.957,22.013,80.269,20.9,79.777z" fill="#20b2aa"/>
		<path d="M18.144,100.884c-3.324,0.097-6.624,0.826-9.895,1.377c-2.36,0.397-5.916,0.088-7.816,1.708    c-0.617,0.527-0.535,1.558,0,2.098c0.929,0.936,2.432,0.581,3.596,0.4c0.491-0.075,0.727-0.489,0.794-0.936    c0.379-0.045,0.722-0.085,0.915-0.125c1.424-0.294,2.839-0.627,4.256-0.953c2.788-0.642,5.614-1.175,8.371-1.938    C19.259,102.267,19.092,100.857,18.144,100.884z" fill="#20b2aa"/>
		<path d="M21.233,139.067c-2.646,1.318-5.183,2.616-7.989,3.613c-1.725,0.612-3.572,0.955-5.087,2.008    c-0.951,0.66-0.652,2.231,0.607,2.239c2.042,0.014,3.948-1.007,5.8-1.783c2.622-1.1,5.963-2.304,7.914-4.466    C23.275,139.799,22.282,138.545,21.233,139.067z" fill="#20b2aa"/>
		<path d="M27.858,150.835c-2.509,1.77-4.255,4.95-5.749,7.552c-1.698,2.956-3.802,7.381-2.428,10.801    c0.562,1.4,2.738,1.309,2.75-0.373c0.026-3.706,0.738-6.536,2.449-9.867c1.252-2.436,3.221-4.648,4.107-7.245    C29.197,151.087,28.405,150.449,27.858,150.835z" fill="#20b2aa"/>
		<path d="M93.13,177.421c-1.451,1.514-3.613,3.487-4.311,5.525c-0.581,1.696,0.422,2.991,2.2,2.885    c1.165-0.069,1.525-1.719,0.45-2.143c0.081-0.164,0.156-0.332,0.252-0.489c0.273-0.486,0.616-0.938,0.94-1.389    c0.73-1.021,1.541-1.985,2.189-3.062C95.494,177.683,93.995,176.52,93.13,177.421z" fill="#20b2aa"/>
		<path d="M111.061,185.895c-1.256-0.906-2.572-1.638-3.656-2.765c-1.354-1.409-1.959-3.356-2.445-5.197    c-0.277-1.054-2.068-0.867-1.942,0.263c0.454,4.071,2.74,8.898,7.188,9.729C111.472,188.162,112.092,186.638,111.061,185.895z" fill="#20b2aa"/>
		<path d="M159.706,152.469c-2.521-1.832-5.838-3.542-8.999-2.41c-0.757,0.271-0.687,1.499,0.198,1.465    c3.503-0.133,5.964,1.392,8.428,3.777c1.603,1.552,2.759,4.014,4.693,5.141c0.895,0.521,1.962-0.331,1.711-1.315    C165.067,156.508,161.778,153.975,159.706,152.469z" fill="#20b2aa"/>
		<path d="M194.197,130.793c-9.735-0.615-19.095-5.575-28.861-4.807c-1.249,0.098-1.278,1.932,0,1.963    c6.063,0.148,11.47,2.087,17.16,3.956c3.873,1.271,8.01,2.452,12.027,1.294C195.894,132.804,195.555,130.878,194.197,130.793z" fill="#20b2aa"/>
		<path d="M187.853,96.405c-3.104,2.351-5.848,4.24-9.571,5.566c-2.865,1.021-5.829,1.398-8.79,1.997    c-0.613,0.124-0.64,1.16,0,1.263c6.032,0.96,16.468-1.933,19.913-7.274C189.992,97.045,188.776,95.706,187.853,96.405z" fill="#20b2aa"/>
		<path d="M188.513,76.819c-2.651,1.697-4.858,3.992-7.521,5.716c-3.146,2.038-6.605,3.336-10.179,4.398    c-1.392,0.413-0.802,2.401,0.591,2.143c6.531-1.213,14.961-4.904,18.827-10.539C190.948,77.492,189.547,76.157,188.513,76.819z" fill="#20b2aa"/>
		<path d="M184.726,66.724c-3.352-2.142-10.151,1.217-13.097,2.917c-3.478,2.008-6.341,5.4-4.124,9.402    c0.533,0.963,1.837,0.117,1.433-0.837c-1.531-3.623,3.617-6.107,6.216-7.189c1.655-0.689,3.404-1.15,5.161-1.49    c1.327-0.258,2.843-0.054,4.112-0.521C185.439,68.633,185.681,67.334,184.726,66.724z" fill="#20b2aa"/>
	</g>
</g>
<g>
</g>
<g>
</g>
<g>
</g>
<g>
</g>
<g>
</g>
<g>
</g>
<g>
</g>
<g>
</g>
<g>
</g>
<g>
</g>
<g>
</g>
<g>
</g>
<g>
</g>
<g>
</g>
<g>
</g>
</svg>
