<?xml version="1.0" encoding="iso-8859-1"?>
<!-- Generator: Adobe Illustrator 16.0.0, SVG Export Plug-In . SVG Version: 6.00 Build 0)  -->
<!DOCTYPE svg PUBLIC "-//W3C//DTD SVG 1.1//EN" "http://www.w3.org/Graphics/SVG/1.1/DTD/svg11.dtd">
<svg xmlns="http://www.w3.org/2000/svg" xmlns:xlink="http://www.w3.org/1999/xlink" version="1.1" id="Capa_1" x="0px" y="0px" width="512px" height="512px" viewBox="0 0 350.23 350.23" style="enable-background:new 0 0 350.23 350.23;" xml:space="preserve">
<g>
	<g>
		<g>
			<path d="M233.695,248.694c-3.507-3.488-8.365-5.404-13.709-5.404c-5.627,0-11.049,2.192-14.88,6.023l-24.229,24.235l-6.548-3.633     c-14.403-7.986-34.141-18.939-54.977-39.806c-20.921-20.896-31.882-40.677-39.896-55.14l-3.579-6.365l24.271-24.268     c8.028-8.056,8.308-20.876,0.606-28.589L55.911,70.911c-3.485-3.486-8.35-5.41-13.685-5.41c-5.621,0-11.04,2.203-14.883,6.038     L16.331,82.614l-1.021,1.702c-4.102,5.258-7.458,11.166-9.965,17.606c-2.333,6.134-3.783,11.964-4.458,17.813     c-5.779,48.053,16.375,92.167,76.492,152.27c71.247,71.234,130.785,76.777,147.339,76.777c2.841,0,4.552-0.156,5.026-0.204     c6.119-0.745,11.968-2.216,17.87-4.498c6.371-2.48,12.268-5.812,17.517-9.914l2.498-1.976l10.31-10.112     c8.017-8.021,8.274-20.824,0.576-28.528L233.695,248.694z" fill="#cc1912"/>
		</g>
		<g>
			<g>
				<path d="M186.228,165.766c-9.758-9.752-22.014-16.769-35.407-20.272l-6.161-1.63l-1.766,6.083      c-0.663,2.255-1.444,4.39-2.33,6.308l-3.339,7.113l7.65,1.976c10.121,2.558,19.344,7.77,26.667,15.108      c6.999,6.984,12.115,15.745,14.793,25.316l1.291,4.611l9.631,0.547c0.973,0.114,1.946,0.223,2.877,0.307l9.055,0.853      l-2.102-8.852C203.713,188.995,196.508,176.04,186.228,165.766z" fill="#cc1912"/>
			</g>
			<g>
				<path d="M217.698,134.282c-18.116-18.119-41.268-29.942-66.92-34.182l-8.923-1.499l1.402,8.92      c0.412,2.645,0.775,5.278,1.078,7.938l0.57,4.693l4.723,0.934c20.446,3.777,38.905,13.43,53.377,27.893      c16.615,16.621,26.77,37.824,29.339,61.351l0.547,4.979l7.548,1.087c1.213,0.096,2.444,0.084,4.18,0.096l9.091,0.312      l-0.721-7.422C250.16,180.505,237.946,154.543,217.698,134.282z" fill="#cc1912"/>
			</g>
			<g>
				<path d="M251.884,100.101c-29.724-29.718-69.316-47.42-111.485-49.831l-8.191-0.511l1.366,8.067      c0.417,2.627,0.928,5.314,1.468,8.113l0.997,4.894l4.951,0.306c36.389,2.492,70.554,17.994,96.212,43.646      c25.244,25.247,40.671,59.024,43.433,95.064l0.475,6.413l6.407-0.378c1.519-0.078,3.014-0.21,5.2-0.402l9.169-0.721      l-0.505-6.497C298.247,167.297,280.671,128.884,251.884,100.101z" fill="#cc1912"/>
			</g>
			<g>
				<path d="M349.702,203.665c-4.191-52.005-26.775-100.943-63.603-137.777C246.804,26.59,194.496,3.805,138.85,1.712l-6.308-0.265      l-0.48,6.341c-0.111,1.771-0.186,3.522-0.252,5.281l-0.387,9.206l6.542,0.234c50.461,1.868,97.851,22.497,133.436,58.082      c33.333,33.333,53.785,77.654,57.604,124.779l0.534,6.617l6.659-0.648c2.258-0.24,4.546-0.414,6.852-0.594l7.182-0.553      L349.702,203.665z" fill="#cc1912"/>
			</g>
		</g>
	</g>
</g>
<g>
</g>
<g>
</g>
<g>
</g>
<g>
</g>
<g>
</g>
<g>
</g>
<g>
</g>
<g>
</g>
<g>
</g>
<g>
</g>
<g>
</g>
<g>
</g>
<g>
</g>
<g>
</g>
<g>
</g>
</svg>
