<?xml version="1.0" encoding="iso-8859-1"?>
<!-- Generator: Adobe Illustrator 19.1.0, SVG Export Plug-In . SVG Version: 6.00 Build 0)  -->
<svg xmlns="http://www.w3.org/2000/svg" xmlns:xlink="http://www.w3.org/1999/xlink" version="1.1" id="Capa_1" x="0px" y="0px" viewBox="0 0 97.02 97.02" style="enable-background:new 0 0 97.02 97.02;" xml:space="preserve" width="512px" height="512px">
<g>
	<path d="M85.26,12.766H11.34C5.04,12.766,0,17.812,0,24.12v49.2c0,5.887,5.04,10.933,11.34,10.933h74.34   c6.3,0,11.34-5.046,11.34-11.354V24.12C96.6,17.812,91.56,12.766,85.26,12.766z M81.06,21.176L48.3,48.51L16.8,21.176H81.06z    M85.26,75.844H11.34c-1.68,0-2.94-1.262-2.94-2.944V24.961l36.96,32.38c0.84,0.841,1.68,0.841,2.94,0.841   c0.84,0,2.1-0.421,2.52-0.841L88.2,26.223V72.9C88.2,74.582,86.94,75.844,85.26,75.844z" fill="#0b9e68"/>
</g>
<g>
</g>
<g>
</g>
<g>
</g>
<g>
</g>
<g>
</g>
<g>
</g>
<g>
</g>
<g>
</g>
<g>
</g>
<g>
</g>
<g>
</g>
<g>
</g>
<g>
</g>
<g>
</g>
<g>
</g>
</svg>
