<?xml version="1.0" encoding="iso-8859-1"?>
<!-- Generator: Adobe Illustrator 16.0.0, SVG Export Plug-In . SVG Version: 6.00 Build 0)  -->
<!DOCTYPE svg PUBLIC "-//W3C//DTD SVG 1.1//EN" "http://www.w3.org/Graphics/SVG/1.1/DTD/svg11.dtd">
<svg version="1.1" id="Capa_1" xmlns="http://www.w3.org/2000/svg" xmlns:xlink="http://www.w3.org/1999/xlink" x="0px" y="0px"
	 width="192.296px" height="192.296px" viewBox="0 0 192.296 192.296" style="enable-background:new 0 0 192.296 192.296;"
	 xml:space="preserve">
<g>
	<g>
		<path d="M180.718,46.379c-0.207-5.967-8.813-6.038-9.36-0.304c-11.64-12.55-23.516-26.882-38.495-35.102
			c0.705-1.681,0.368-3.819-1.486-4.879c-14.861-8.479-38.015-5.816-54.367-5.263c-18.1,0.614-36.906,2.485-54.736,6.609
			c-0.365-1.428-1.736-2.234-3.178-1.507c-1.492,0.751-2.727,1.856-3.744,3.252c-0.285,0.075-0.576,0.139-0.861,0.217
			c-2.416,0.664-2.872,3.675-1.733,5.401c-4.822,16.611,3.538,49.103,4.72,59.477c2.096,18.387-0.323,36.509-2.611,54.776
			c-2.216,17.69-6.657,39.145-0.134,56.335c-1.779,1.804-0.778,5.829,2.259,5.573c51.92-4.383,103.302-11.926,154.588,1.147
			c5.854,1.492,7.699-6.608,2.421-8.783c-0.203-0.083-0.413-0.152-0.617-0.235c3.827-6.21,3.357-12.962,3.914-20.343
			c1.024-13.582,1.609-27.186,2.143-40.794C180.427,96.852,181.589,71.5,180.718,46.379z M168.493,181.299
			c-21.788-7.325-47.016-6.84-69.45-6.23c-25.463,0.69-51.41,3.427-76.517,8.271c-0.989-33.997,7.58-67.696,5.541-101.477
			c-0.791-13.107-3.203-26.162-4.689-39.204c-1.046-9.188-0.359-18.479-0.573-27.564c16.171-2.003,32.287-3.718,48.601-4.674
			c18.028-1.056,35.157,1.837,52.78,2.68c0.153,0.193,0.293,0.398,0.498,0.555c17.006,12.96,29.798,29.012,44.784,44.076
			c0.467,0.47,0.964,0.788,1.469,1.014c-0.527,21.064-0.526,42.154-1.203,63.215c-0.378,11.773-0.939,23.539-1.456,35.307
			C167.924,165.383,166.082,173.643,168.493,181.299z"/>
		<path d="M148.854,149.129c-5.938-6.45-23.037-4.425-30.776-5.062c-26.836-2.211-53.222-4.044-80.205-3.037
			c-4.287,0.16-4.286,6.487,0,6.649c34.82,1.33,71.272,1.607,105.708,8.051c0.859,0.537,1.889,0.772,2.939,0.405
			c0.179-0.062,0.356-0.124,0.534-0.186C149.99,154.925,151.018,151.48,148.854,149.129z"/>
		<path d="M146.514,122.956c-13.568-5.529-31.47-3.729-45.87-3.804c-20.335-0.105-40.857,0.023-61.166,1.098
			c-4.151,0.22-4.159,6.248,0,6.449c18.433,0.893,36.96,0.246,55.413,0.683c16.633,0.394,34.125,4.081,50.593,3.176
			C150.063,130.304,150.476,124.57,146.514,122.956z"/>
		<path d="M148.079,90.364c-8.438-10.323-33.864-6.275-45.194-5.706c-21.722,1.092-43.277,4.502-65.013,5.276
			c-3.886,0.139-3.909,6.007,0,6.046c18.297,0.18,36.597-1.438,54.861-2.331c9.697-0.476,19.393-0.615,29.096-0.292
			c7.979,0.266,15.876,3.502,23.655,3.268C148.888,96.523,150.066,92.796,148.079,90.364z"/>
		<path d="M111.756,57.725c-23.014,0.893-46.086,1.912-69.065,3.439c-3.704,0.246-3.722,5.552,0,5.764
			c22.973,1.306,46.065-0.441,69.065,0.229C117.844,67.333,117.831,57.489,111.756,57.725z"/>
	</g>
</g>
<g>
</g>
<g>
</g>
<g>
</g>
<g>
</g>
<g>
</g>
<g>
</g>
<g>
</g>
<g>
</g>
<g>
</g>
<g>
</g>
<g>
</g>
<g>
</g>
<g>
</g>
<g>
</g>
<g>
</g>
</svg>
