<?xml version="1.0" encoding="iso-8859-1"?>
<!-- Generator: Adobe Illustrator 16.0.0, SVG Export Plug-In . SVG Version: 6.00 Build 0)  -->
<!DOCTYPE svg PUBLIC "-//W3C//DTD SVG 1.1//EN" "http://www.w3.org/Graphics/SVG/1.1/DTD/svg11.dtd">
<svg xmlns="http://www.w3.org/2000/svg" xmlns:xlink="http://www.w3.org/1999/xlink" version="1.1" id="Capa_1" x="0px" y="0px" width="512px" height="512px" viewBox="0 0 190.29 190.29" style="enable-background:new 0 0 190.29 190.29;" xml:space="preserve">
<g>
	<g>
		<path d="M160.12,171.042c0.044-0.445-0.074-0.778-0.248-1.059c-1.588-15.177-12.398-34.472-28.406-36.415    c-14.981-1.817-32.91,11.182-43.51-8.246c-9.923-18.188-26.101-33.756-28.199-55.413c-1.073-11.078,15.355-14.742,20.182-22.758    c2.815-4.674,0.847-11.707-0.26-16.557c-2.262-9.907-11.142-30.29-23.341-30.593c-0.645-0.016-1.125,0.223-1.444,0.589    C32.641,0.728,19.7,20.493,14.138,40.639c-8.942,32.391,14.743,68.329,32.42,93.113c17.874,25.06,37.251,52.952,70.274,56.125    c13.4,1.288,36.456,0.31,42.073-14.012c0.566-0.017,1.156-0.386,1.18-1.049c0.037-1.054,0.009-2.15-0.062-3.27    C160.045,171.371,160.101,171.22,160.12,171.042z M101.237,182.519c-23.737-7.217-42.266-38.001-55.727-56.88    C21.111,91.417-5.888,16.204,54.526,2.56c0.219,0.742,0.815,1.368,1.81,1.405c9.1,0.339,15.349,16.469,18.171,23.316    c6.365,15.443-3.835,19.917-13.204,29.074c-11.717,11.451-2.527,29.834,4.34,41.372c5.149,8.652,11.812,16.228,16.724,25.066    c3.12,5.614,5.949,14.353,11.665,18.129c5.672,3.747,9.397,3.054,15.954,1.148c14.24-4.137,16.049-12.927,34.301,3.382    c6.958,6.217,10.54,15.461,12.582,24.478c-0.27,0.288-0.483,0.642-0.538,1.113C153.798,192.66,114.213,186.464,101.237,182.519z" fill="#FFFFFF"/>
		<path d="M142.601,65.418c-4.855-17.424-20.639-24.707-37.552-22.421c-0.33,0.045-0.54,0.227-0.692,0.445    c-0.249-0.019-0.499-0.068-0.748-0.07c-0.631-0.006-1.037,0.415-1.258,0.958c-0.081,0.199-0.163,0.399-0.244,0.599    c-0.032,0.081,0.002,0.217,0.072,0.271c3.157,2.479,7.129,3.521,10.392,6.482c4.697,4.264,8.75,9.498,12.199,14.79    c5.532,8.49,7.169,18.464,8.036,28.343c0.269,3.055-0.439,6.277,0.176,9.293c0.007,0.078,0.013,0.155,0.029,0.229    c0.007,0.03,0.005,0.062,0.012,0.093c0.038,0.16,0.122,0.268,0.188,0.398c0.017,0.026,0.022,0.061,0.041,0.087    c0.346,0.605,0.948,0.857,1.579,0.819c0.397,0.024,0.758-0.116,1.075-0.341c0.034-0.008,0.062-0.001,0.096-0.011    C150.497,101.138,145.506,75.842,142.601,65.418z M137.275,100.081c1.057-11.413-3.317-24.883-8.306-34.178    c-3.339-6.222-10.382-15.986-18.084-20.32c13.198,0.802,23.11,7.233,27.971,20.867C142.233,75.921,144.231,91.652,137.275,100.081    z" fill="#FFFFFF"/>
		<path d="M166.578,36.151C157.523,19.899,121.5-4.282,104.809,12.72c-1.492,1.52,0.3,3.69,1.956,3.123    c0.068,0.051,0.117,0.114,0.202,0.153c44.757,20.886,63.449,54.317,50.812,103.186c-0.521,2.021,1.903,3.322,3.39,1.973    C184.81,99.702,180.873,61.811,166.578,36.151z M163.2,114.411c1.459-5.653,2.186-11.423,2.88-17.201    c4.823-40.142-21.024-69.812-56.808-83.22c12.035-8.534,31.162,3.878,40.833,10.206c12.529,8.198,18.311,22.543,21.857,36.472    c3.294,12.933,2.513,26.642-1.219,39.33C171.133,98.674,161.509,120.959,163.2,114.411z" fill="#FFFFFF"/>
	</g>
</g>
<g>
</g>
<g>
</g>
<g>
</g>
<g>
</g>
<g>
</g>
<g>
</g>
<g>
</g>
<g>
</g>
<g>
</g>
<g>
</g>
<g>
</g>
<g>
</g>
<g>
</g>
<g>
</g>
<g>
</g>
</svg>
